<svg xmlns:dc="http://purl.org/dc/elements/1.1/" xmlns:cc="http://creativecommons.org/ns#" xmlns:rdf="http://www.w3.org/1999/02/22-rdf-syntax-ns#" xmlns:svg="http://www.w3.org/2000/svg" xmlns="http://www.w3.org/2000/svg" xmlns:sodipodi="http://sodipodi.sourceforge.net/DTD/sodipodi-0.dtd" xmlns:inkscape="http://www.inkscape.org/namespaces/inkscape" version="1.1" data-icon="home" data-container-transform="translate(0 3)" viewBox="6.4 -12.8 128.0 172.8" x="0px" y="0px"><path style="opacity:1;fill:#000000;fill-opacity:1;stroke:none;stroke-width:9.69999981;stroke-miterlimit:4;stroke-dasharray:none;stroke-opacity:1" d="M 59.673828 38.072266 C 59.660701 38.072266 59.649543 38.078947 59.636719 38.080078 L 59.353516 38.080078 C 59.135366 38.080078 58.958984 38.25646 58.958984 38.474609 L 58.958984 67.214844 L 45.849609 67.214844 C 45.63146 67.214844 45.457031 67.389272 45.457031 67.607422 L 45.457031 68.302734 C 45.457031 68.520884 45.63146 68.695312 45.849609 68.695312 L 58.958984 68.695312 L 58.958984 90.332031 C 58.958984 90.550181 59.135366 90.724609 59.353516 90.724609 L 60.046875 90.724609 C 60.265025 90.724609 60.441406 90.550181 60.441406 90.332031 L 60.441406 68.695312 L 73.769531 68.695312 C 73.987681 68.695312 74.162109 68.520884 74.162109 68.302734 L 74.162109 67.607422 C 74.162109 67.389272 73.987681 67.214844 73.769531 67.214844 L 60.441406 67.214844 L 60.441406 39.552734 L 76.316406 39.552734 C 76.556673 39.552734 76.75 39.359407 76.75 39.119141 L 76.75 38.505859 C 76.75 38.265593 76.556673 38.072266 76.316406 38.072266 L 59.673828 38.072266 z " transform="matrix(1.35,0,0,1.35,-16.000003,-12.8)"></path><path style="opacity:1;fill:#000000;fill-opacity:1;stroke:none;stroke-width:9.69999981;stroke-miterlimit:4;stroke-dasharray:none;stroke-opacity:1" d="M 70.45533,19.251841 A 50.922216,51.336219 0 0 0 19.31617,60.687877 50.922216,51.336219 0 0 0 59.033065,120.86044 50.922216,51.336219 0 0 0 119.07116,81.357116 l 0.34804,-1.790333 A 50.922216,51.336219 0 0 0 78.647616,20.114048 50.922216,51.336219 0 0 0 70.45533,19.251841 Z m -0.208301,2.707911 a 48.897001,48.636451 0 0 1 7.865332,0.817383 48.897001,48.636451 0 0 1 39.149999,56.325586 l -0.33222,1.69541 A 48.897001,48.636451 0 0 1 59.278279,118.22636 48.897001,48.636451 0 0 1 21.140779,61.217857 48.897001,48.636451 0 0 1 70.247029,21.959752 Z"></path></svg>